<svg id="drill" xmlns="http://www.w3.org/2000/svg" width="110.106" height="90.086" viewBox="0 0 110.106 90.086">
  <defs>
    <style>
      .cls-1 {
        fill: #fff;
      }
    </style>
  </defs>
  <g id="Group_26" data-name="Group 26" transform="translate(0 0)">
    <g id="Group_25" data-name="Group 25">
      <path id="Path_1000" data-name="Path 1000" class="cls-1" d="M107.6,66.565H80.077v-3.6a7.5,7.5,0,0,0-5.685-7.284L70.067,54.6v-.548a7.516,7.516,0,0,0-7.507-7.507H17.517A17.536,17.536,0,0,0,0,64.063V74.072A17.536,17.536,0,0,0,17.517,91.589H40.038a2.5,2.5,0,1,0,0-5H17.517A12.526,12.526,0,0,1,5,74.072V64.063A12.526,12.526,0,0,1,17.517,51.551H62.56a2.506,2.506,0,0,1,2.5,2.5V84.082a2.506,2.506,0,0,1-2.5,2.5H50.048a2.5,2.5,0,0,0-2.427,1.894L46.067,94.7a2.5,2.5,0,0,1-2.43,1.9H38a2.5,2.5,0,0,0-2.452,2l-2.89,14.171a7.455,7.455,0,0,0,.35,3.846H27.526a2.5,2.5,0,1,0,0,5h10.01a2.455,2.455,0,0,0,.881-.178,7.612,7.612,0,0,0,1.621.178h2.5a2.506,2.506,0,0,1,2.5,2.5v5a2.506,2.506,0,0,1-2.5,2.5H22.521a2.506,2.506,0,0,1-2.5-2.5,88.854,88.854,0,0,1,1.209-14.566l2.1-15.117a2.5,2.5,0,0,0-4.957-.688L16.28,113.8a93.561,93.561,0,0,0-1.266,15.322,7.516,7.516,0,0,0,7.507,7.507H42.541a7.516,7.516,0,0,0,7.507-7.507v-5a7.516,7.516,0,0,0-7.507-7.507h-2.5a2.474,2.474,0,0,1-1.922-.9,2.435,2.435,0,0,1-.551-2L40.038,101.6h3.6a7.5,7.5,0,0,0,7.284-5.686L52,91.589H62.56a7.516,7.516,0,0,0,7.507-7.507v-.548l4.324-1.081a7.5,7.5,0,0,0,5.685-7.284v-3.6H107.6a2.5,2.5,0,0,0,0-5.005Zm-32.531,8.6a2.5,2.5,0,0,1-1.9,2.427l-3.108.778V59.761l3.108.778a2.5,2.5,0,0,1,1.9,2.427Z" transform="translate(0 -46.546)"/>
    </g>
  </g>
  <g id="Group_28" data-name="Group 28" transform="translate(12.512 20.019)">
    <g id="Group_27" data-name="Group 27">
      <path id="Path_1001" data-name="Path 1001" class="cls-1" d="M70.694,139.636H60.684a2.5,2.5,0,1,0,0,5H70.694a2.5,2.5,0,0,0,0-5Z" transform="translate(-58.182 -139.636)"/>
    </g>
  </g>
  <g id="Group_30" data-name="Group 30" transform="translate(12.512 12.512)">
    <g id="Group_29" data-name="Group 29" transform="translate(0 0)">
      <path id="Path_1002" data-name="Path 1002" class="cls-1" d="M70.694,104.727H60.684a2.5,2.5,0,0,0,0,5H70.694a2.5,2.5,0,0,0,0-5Z" transform="translate(-58.182 -104.727)"/>
    </g>
  </g>
  <g id="Group_32" data-name="Group 32" transform="translate(12.512 27.526)">
    <g id="Group_31" data-name="Group 31" transform="translate(0 0)">
      <path id="Path_1003" data-name="Path 1003" class="cls-1" d="M70.694,174.545H60.684a2.5,2.5,0,1,0,0,5H70.694a2.5,2.5,0,0,0,0-5Z" transform="translate(-58.182 -174.545)"/>
    </g>
  </g>
</svg>
