<svg id="sprout" xmlns="http://www.w3.org/2000/svg" width="96.458" height="87.689" viewBox="0 0 96.458 87.689">
  <defs>
    <style>
      .cls-1 {
        fill: #fff;
      }
    </style>
  </defs>
  <g id="Group_42" data-name="Group 42" transform="translate(52.614 0)">
    <g id="Group_41" data-name="Group 41" transform="translate(0 0)">
      <path id="Path_1007" data-name="Path 1007" class="cls-1" d="M320.268,23.711a4.377,4.377,0,0,0-1.973-.438c-.877.219-23.676,3.946-31.13,11.4-3.727,3.727-5.7,7.892-5.7,12.277a16.922,16.922,0,0,0,3.288,9.427L279.93,61.2a2.119,2.119,0,0,0,0,3.069,2.119,2.119,0,0,0,3.069,0L300.538,46.73a2.17,2.17,0,0,0-3.069-3.069l-9.427,9.427a11.7,11.7,0,0,1-2.192-6.357c0-3.069,1.534-6.138,4.385-8.988,4.823-4.6,18.2-8.111,25.868-9.646-1.535,7.454-5.042,20.826-9.646,25.649-3.727,3.727-7.454,5.261-11.181,4.385a2.236,2.236,0,0,0-.877,4.385,12.5,12.5,0,0,0,2.85.219c3.288,0,7.673-1.315,12.277-5.919,7.673-7.454,11.4-30.034,11.4-31.13C321.144,25.027,320.706,24.369,320.268,23.711Z" transform="translate(-279.273 -23.273)"/>
    </g>
  </g>
  <g id="Group_44" data-name="Group 44" transform="translate(19.73 2.192)">
    <g id="Group_43" data-name="Group 43" transform="translate(0 0)">
      <path id="Path_1008" data-name="Path 1008" class="cls-1" d="M132.788,59.462l-3.508-3.508c3.069-4.385,2.411-9.427-1.973-13.811-5.042-4.6-18.415-7.015-19.949-7.234a2.325,2.325,0,0,0-2.631,2.631c.219,1.534,2.631,15.126,7.454,19.949a14.282,14.282,0,0,0,5.042,3.288h.658a2.639,2.639,0,0,0,2.192-1.534,2.281,2.281,0,0,0-1.315-2.85,9.574,9.574,0,0,1-3.288-2.192c-2.631-2.631-4.6-9.646-5.481-14.469,4.6,1.1,11.838,3.069,14.249,5.481,2.631,2.631,3.288,5.261,1.973,7.673l-2.192-2.192a2.17,2.17,0,1,0-3.069,3.069l8.769,8.769a2.119,2.119,0,0,0,3.069,0A2.12,2.12,0,0,0,132.788,59.462Z" transform="translate(-104.727 -34.909)"/>
    </g>
  </g>
  <g id="Group_46" data-name="Group 46" transform="translate(0 48.448)">
    <g id="Group_45" data-name="Group 45">
      <path id="Path_1009" data-name="Path 1009" class="cls-1" d="M95.8,287.452a14.323,14.323,0,0,0-17.1-2.411l-9.207,4.385a24.477,24.477,0,0,1-8.111,1.973,11.271,11.271,0,0,0,2.192-6.577,4.4,4.4,0,0,0-4.385-4.385h-22.8a19.51,19.51,0,0,0-14.907,6.8L13.811,296a5.867,5.867,0,0,0-5.042-2.631H2.192a2.192,2.192,0,0,0,0,4.384H8.769a2.071,2.071,0,0,1,2.192,2.192V313.1a2.071,2.071,0,0,1-2.192,2.192H2.192a2.192,2.192,0,0,0,0,4.385H8.769a6.386,6.386,0,0,0,6.138-4.385H26.964a13.477,13.477,0,0,0,3.069-.219l30.911-3.508a29.963,29.963,0,0,0,14.03-5.481L95.581,290.74a2.219,2.219,0,0,0,.877-1.534A2.49,2.49,0,0,0,95.8,287.452ZM72.344,302.579a23.22,23.22,0,0,1-11.838,4.6L29.6,310.69c-.877,0-1.754.219-2.631.219H15.346V300.825l9.646-10.961A15.275,15.275,0,0,1,36.61,284.6h22.58a6.459,6.459,0,0,1-6.577,6.577H39.46a2.192,2.192,0,0,0,0,4.384H60.725a24.674,24.674,0,0,0,10.523-2.411l9.427-4.384a9.8,9.8,0,0,1,10.084.219Z" transform="translate(0 -280.437)"/>
    </g>
  </g>
</svg>
