<svg id="paint-brush_1_" data-name="paint-brush (1)" xmlns="http://www.w3.org/2000/svg" width="68.628" height="100.654" viewBox="0 0 68.628 100.654">
  <defs>
    <style>
      .cls-1 {
        fill: #fff;
      }
    </style>
  </defs>
  <g id="Group_20" data-name="Group 20" transform="translate(32.027 9.151)">
    <g id="Group_19" data-name="Group 19">
      <circle id="Ellipse_11" data-name="Ellipse 11" class="cls-1" cx="2.288" cy="2.288" r="2.288"/>
    </g>
  </g>
  <g id="Group_22" data-name="Group 22" transform="translate(9.151 50.327)">
    <g id="Group_21" data-name="Group 21" transform="translate(0)">
      <path id="Path_998" data-name="Path 998" class="cls-1" d="M176.04,256H130.288a2.288,2.288,0,1,0,0,4.575h45.752a2.288,2.288,0,0,0,0-4.575Z" transform="translate(-128 -256)"/>
    </g>
  </g>
  <g id="Group_24" data-name="Group 24" transform="translate(0 0)">
    <g id="Group_23" data-name="Group 23">
      <path id="Path_999" data-name="Path 999" class="cls-1" d="M145.191,42.581l-16.354-4.907a2.271,2.271,0,0,1-1.631-2.189V11.438a11.438,11.438,0,0,0-22.876,0V35.485a2.277,2.277,0,0,1-1.629,2.192L86.345,42.584a6.818,6.818,0,0,0-4.891,6.572V61.765a2.287,2.287,0,0,0,2.288,2.288H90.6V73.2a2.288,2.288,0,1,0,4.575,0v-9.15h4.575v6.863a2.288,2.288,0,0,0,4.575,0V64.053h4.575v4.575a2.288,2.288,0,1,0,4.575,0V64.053h4.575V66.34a2.288,2.288,0,0,0,4.575,0V64.053h4.575V66.34a2.288,2.288,0,1,0,4.575,0V64.053h4.575V66.34a2.288,2.288,0,0,0,4.576,0V61.765a2.287,2.287,0,0,0-2.288-2.288H86.029V49.156a2.277,2.277,0,0,1,1.629-2.192l16.356-4.907a6.818,6.818,0,0,0,4.891-6.572V11.438a6.863,6.863,0,1,1,13.726,0V35.485a6.822,6.822,0,0,0,4.891,6.575l16.354,4.907a2.271,2.271,0,0,1,1.631,2.189v30.91a16.038,16.038,0,0,1-13.726,15.851V77.778a2.288,2.288,0,0,0-4.575,0,18.322,18.322,0,0,1-18.3,18.3H86.029V70.916a2.288,2.288,0,0,0-4.575,0V98.367a2.287,2.287,0,0,0,2.288,2.288h25.164a22.854,22.854,0,0,0,18.3-9.164v6.877a2.287,2.287,0,0,0,2.288,2.288,20.612,20.612,0,0,0,20.588-20.588V49.156A6.822,6.822,0,0,0,145.191,42.581Z" transform="translate(-81.454)"/>
    </g>
  </g>
</svg>
